<?xml version="1.0" encoding="UTF-8"?>
<svg width="320" height="120" viewBox="0 0 320 120" xmlns="http://www.w3.org/2000/svg">
  <title>R.E.P.S. Softball Logo (Outlined - Marketing Ready)</title>

  <!-- Navy Background -->
  <rect width="320" height="120" fill="#1a2744"/>

  <!-- R.E.P.S. letterforms - Crete Round style -->
  <g transform="translate(28, 50)">

    <!-- R letter -->
    <g fill="#ffffff">
      <path d="M0,0 L0,-38 L22,-38 C32,-38 38,-32 38,-24 C38,-17 34,-12 27,-10 L40,0 L28,0 L17,-9 L10,-9 L10,0 Z M10,-16 L20,-16 C26,-16 29,-19 29,-24 C29,-29 26,-31 20,-31 L10,-31 Z"/>
    </g>

    <!-- Green dot after R -->
    <circle cx="50" cy="-4" r="5" fill="#39ff14"/>

    <!-- E letter -->
    <g fill="#ffffff" transform="translate(62, 0)">
      <path d="M0,0 L0,-38 L32,-38 L32,-31 L10,-31 L10,-22 L28,-22 L28,-15 L10,-15 L10,-7 L32,-7 L32,0 Z"/>
    </g>

    <!-- Green dot after E -->
    <circle cx="104" cy="-4" r="5" fill="#39ff14"/>

    <!-- P letter -->
    <g fill="#ffffff" transform="translate(116, 0)">
      <path d="M0,0 L0,-38 L22,-38 C32,-38 38,-32 38,-24 C38,-16 32,-10 22,-10 L10,-10 L10,0 Z M10,-17 L20,-17 C26,-17 29,-20 29,-24 C29,-29 26,-31 20,-31 L10,-31 Z"/>
    </g>

    <!-- Green dot after P -->
    <circle cx="164" cy="-4" r="5" fill="#39ff14"/>

    <!-- S letter -->
    <g fill="#ffffff" transform="translate(176, 0)">
      <path d="M16,-38 C8,-38 2,-36 2,-36 L2,-29 C2,-29 8,-31 16,-31 C22,-31 26,-29 26,-25 C26,-21 22,-19 14,-16 C5,-13 0,-9 0,-2 C0,4 6,7 16,7 C24,7 30,5 30,5 L30,-2 C30,-2 24,0 16,0 C10,0 6,-2 6,-6 C6,-10 10,-12 18,-15 C27,-18 32,-22 32,-29 C32,-36 26,-38 16,-38 Z"/>
    </g>

    <!-- Green dot after S -->
    <circle cx="218" cy="-4" r="5" fill="#39ff14"/>
  </g>

  <!-- SOFTBALL text in Crete Round style -->
  <g fill="#39ff14" transform="translate(160, 95)">
    <!-- S -->
    <g transform="translate(-70, 0)">
      <path d="M8,-15 C4,-15 1,-14 1,-14 L1,-10 C1,-10 4,-11 8,-11 C11,-11 13,-10 13,-8 C13,-6 11,-5 7,-4 C2,-3 0,-1 0,3 C0,7 3,9 8,9 C12,9 15,8 15,8 L15,4 C15,4 12,5 8,5 C5,5 3,4 3,2 C3,0 5,-1 9,-2 C14,-3 16,-5 16,-9 C16,-13 13,-15 8,-15 Z"/>
    </g>
    <!-- O -->
    <g transform="translate(-52, 0)">
      <path d="M8,-15 C3,-15 0,-11 0,-3 C0,5 3,9 8,9 C13,9 16,5 16,−3 C16,-11 13,-15 8,-15 Z M8,-11 C11,-11 12,-7 12,-3 C12,1 11,5 8,5 C5,5 4,1 4,-3 C4,-7 5,-11 8,-11 Z"/>
    </g>
    <!-- F -->
    <g transform="translate(-34, 0)">
      <path d="M0,-15 L0,8 L4,8 L4,-2 L10,-2 L10,-6 L4,-6 L4,-11 L11,-11 L11,-15 Z"/>
    </g>
    <!-- T -->
    <g transform="translate(-20, 0)">
      <path d="M0,-15 L0,-11 L4,-11 L4,8 L8,8 L8,-11 L12,-11 L12,-15 Z"/>
    </g>
    <!-- B -->
    <g transform="translate(-6, 0)">
      <path d="M0,-15 L0,8 L8,8 C12,8 14,6 14,3 C14,0 12,-1 10,-2 C12,-3 13,-4 13,-7 C13,-11 11,-15 7,-15 Z M4,-11 L6,-11 C8,-11 9,-10 9,-8 C9,-6 8,-5 6,-5 L4,-5 Z M4,-1 L7,-1 C9,-1 10,0 10,2 C10,4 9,4 7,4 L4,4 Z"/>
    </g>
    <!-- A -->
    <g transform="translate(12, 0)">
      <path d="M6,-15 L0,8 L4,8 L5,3 L11,3 L12,8 L16,8 L10,-15 Z M8,-9 L6,-1 L10,-1 Z"/>
    </g>
    <!-- L -->
    <g transform="translate(30, 0)">
      <path d="M0,-15 L0,8 L12,8 L12,4 L4,4 L4,-15 Z"/>
    </g>
    <!-- L -->
    <g transform="translate(44, 0)">
      <path d="M0,-15 L0,8 L12,8 L12,4 L4,4 L4,-15 Z"/>
    </g>
  </g>
</svg>
