<?xml version="1.0" encoding="UTF-8"?>
<svg width="400" height="100" viewBox="0 0 400 100" xmlns="http://www.w3.org/2000/svg">
  <title>R.E.P.S. Wordmark (Outlined)</title>

  <!-- Navy Background -->
  <rect width="400" height="100" fill="#1a2744"/>

  <!-- R letter - approximated Crete Round style with serifs -->
  <g fill="#ffffff">
    <!-- R -->
    <path d="M52,25 h22 c12,0 18,6 18,15 c0,8-5,13-14,15 l16,20 h-12 l-14-18 h-8 v18 h-8 v-50z M60,32 v15 h13 c7,0 11-3 11-8 c0-5-4-7-11-7 h-13z"/>
  </g>

  <!-- Green dot after R -->
  <circle cx="100" cy="68" r="5" fill="#39ff14"/>

  <!-- E letter -->
  <g fill="#ffffff">
    <path d="M115,25 h32 v7 h-24 v13 h22 v7 h-22 v16 h25 v7 h-33 v-50z"/>
  </g>

  <!-- Green dot after E -->
  <circle cx="158" cy="68" r="5" fill="#39ff14"/>

  <!-- P letter -->
  <g fill="#ffffff">
    <path d="M173,25 h22 c14,0 20,7 20,17 c0,10-6,17-20,17 h-14 v16 h-8 v-50z M181,32 v20 h13 c9,0 13-4 13-10 c0-6-4-10-13-10 h-13z"/>
  </g>

  <!-- Green dot after P -->
  <circle cx="224" cy="68" r="5" fill="#39ff14"/>

  <!-- S letter -->
  <g fill="#ffffff">
    <path d="M239,68 c0,0 6,5 15,5 c8,0 12-3 12-8 c0-5-4-7-13-10 c-11-4-16-8-16-16 c0-10 8-16 20-16 c10,0 17,4 17,4 l-3,7 c0,0-6-4-14-4 c-8,0-12,3-12,8 c0,5 4,7 12,10 c12,4 17,9 17,17 c0,10-8,16-21,16 c-11,0-18-5-18-5 l4-8z"/>
  </g>

  <!-- Green dot after S -->
  <circle cx="290" cy="68" r="5" fill="#39ff14"/>
</svg>
