<?xml version="1.0" encoding="UTF-8"?>
<svg width="400" height="100" viewBox="0 0 400 100" xmlns="http://www.w3.org/2000/svg">
  <title>R.E.P.S. Wordmark (Outlined - Marketing Ready)</title>

  <!-- Navy Background -->
  <rect width="400" height="100" fill="#1a2744"/>

  <!-- R.E.P.S. letterforms approximating Crete Round slab serif style -->
  <!-- Positioned to match the font-based version -->

  <g transform="translate(200, 50)">
    <!-- Centered group -->

    <!-- R letter - slab serif style -->
    <g fill="#ffffff" transform="translate(-165, 0)">
      <path d="M0,-25 L0,25 L8,25 L8,3 L18,3 L28,25 L38,25 L27,1 C33,-2 36,-8 36,-15 C36,-22 31,-25 22,-25 L0,-25 Z M8,-18 L20,-18 C26,-18 28,-15 28,-12 C28,-9 26,-5 20,-5 L8,-5 L8,-18 Z"/>
    </g>

    <!-- Green dot after R -->
    <circle cx="-122" cy="20" r="5" fill="#39ff14"/>

    <!-- E letter - slab serif style -->
    <g fill="#ffffff" transform="translate(-105, 0)">
      <path d="M0,-25 L0,25 L32,25 L32,18 L8,18 L8,3 L28,3 L28,-4 L8,-4 L8,-18 L31,-18 L31,-25 L0,-25 Z"/>
    </g>

    <!-- Green dot after E -->
    <circle cx="-62" cy="20" r="5" fill="#39ff14"/>

    <!-- P letter - slab serif style -->
    <g fill="#ffffff" transform="translate(-45, 0)">
      <path d="M0,-25 L0,25 L8,25 L8,0 L20,0 C31,0 36,-6 36,-16 C36,-22 32,-25 22,-25 L0,-25 Z M8,-18 L20,-18 C26,-18 28,-15 28,-13 C28,-9 26,-7 20,-7 L8,-7 L8,-18 Z"/>
    </g>

    <!-- Green dot after P -->
    <circle cx="-2" cy="20" r="5" fill="#39ff14"/>

    <!-- S letter - slab serif style -->
    <g fill="#ffffff" transform="translate(15, 0)">
      <path d="M30,-25 C20,-25 10,-22 5,-18 L9,-11 C14,-15 22,-18 28,-18 C34,-18 38,-15 38,-11 C38,-6 34,-4 24,-1 C12,3 5,8 5,17 C5,24 12,26 22,26 C32,26 40,23 45,19 L41,12 C36,16 30,19 23,19 C17,19 13,17 13,13 C13,8 18,6 28,3 C40,-1 46,-5 46,-14 C46,-22 39,-25 30,-25 Z"/>
    </g>

    <!-- Green dot after S -->
    <circle cx="68" cy="20" r="5" fill="#39ff14"/>
  </g>
</svg>
