<?xml version="1.0" encoding="UTF-8"?>
<svg width="320" height="120" viewBox="0 0 320 120" xmlns="http://www.w3.org/2000/svg">
  <title>R.E.P.S. Milford Logo (Outlined - Marketing Ready)</title>

  <!-- Navy Background -->
  <rect width="320" height="120" fill="#1a2744"/>

  <!-- R.E.P.S. letterforms -->
  <g transform="translate(160, 38)">

    <!-- R letter -->
    <g fill="#ffffff" transform="translate(-138, 0)">
      <path d="M0,-26 L0,26 L10,26 L10,4 L22,4 L34,26 L46,26 L32,2 C40,-2 44,-9 44,-17 C44,-24 38,-26 26,-26 L0,-26 Z M10,-18 L24,-18 C32,-18 36,-15 36,-12 C36,-8 32,-4 24,-4 L10,-4 L10,-18 Z"/>
    </g>

    <!-- Green dot after R -->
    <circle cx="-88" cy="20" r="5" fill="#39ff14"/>

    <!-- E letter -->
    <g fill="#ffffff" transform="translate(-72, 0)">
      <path d="M0,-26 L0,26 L38,26 L38,18 L10,18 L10,4 L34,4 L34,-4 L10,-4 L10,-18 L37,-18 L37,-26 L0,-26 Z"/>
    </g>

    <!-- Green dot after E -->
    <circle cx="-26" cy="20" r="5" fill="#39ff14"/>

    <!-- P letter -->
    <g fill="#ffffff" transform="translate(-10, 0)">
      <path d="M0,-26 L0,26 L10,26 L10,2 L24,2 C38,2 44,-6 44,-16 C44,-24 38,-26 26,-26 L0,-26 Z M10,-18 L24,-18 C32,-18 36,-14 36,-12 C36,-8 32,-6 24,-6 L10,-6 L10,-18 Z"/>
    </g>

    <!-- Green dot after P -->
    <circle cx="42" cy="20" r="5" fill="#39ff14"/>

    <!-- S letter -->
    <g fill="#ffffff" transform="translate(58, 0)">
      <path d="M40,-18 C40,-24 32,-26 20,-26 C10,-26 2,-24 2,-24 L2,-17 C2,-17 10,-19 20,-19 C28,-19 32,-17 32,-13 C32,-9 28,-7 18,-4 C6,0 0,5 0,14 C0,22 8,26 22,26 C34,26 42,23 42,23 L42,16 C42,16 34,19 22,19 C12,19 8,17 8,13 C8,9 12,7 22,4 C36,0 40,-6 40,-14 L40,-18 Z"/>
    </g>

    <!-- Green dot after S -->
    <circle cx="114" cy="20" r="5" fill="#39ff14"/>
  </g>

  <!-- MILFORD text -->
  <g fill="#39ff14" transform="translate(160, 95)">
    <!-- M -->
    <g transform="translate(-68, 0)">
      <path d="M0,-10 L0,10 L4,10 L4,-4 L10,6 L12,6 L18,-4 L18,10 L22,10 L22,-10 L18,-10 L11,2 L4,-10 L0,-10 Z"/>
    </g>
    <!-- I -->
    <g transform="translate(-42, 0)">
      <path d="M0,-10 L0,10 L4,10 L4,-10 L0,-10 Z"/>
    </g>
    <!-- L -->
    <g transform="translate(-34, 0)">
      <path d="M0,-10 L0,10 L14,10 L14,7 L4,7 L4,-10 L0,-10 Z"/>
    </g>
    <!-- F -->
    <g transform="translate(-16, 0)">
      <path d="M0,-10 L0,10 L4,10 L4,1 L12,1 L12,-2 L4,-2 L4,-7 L13,-7 L13,-10 L0,-10 Z"/>
    </g>
    <!-- O -->
    <g transform="translate(2, 0)">
      <path d="M8,-10 C2,-10 -2,-6 -2,0 C-2,6 2,10 8,10 C14,10 18,6 18,0 C18,-6 14,-10 8,-10 Z M8,-7 C12,-7 14,-4 14,0 C14,4 12,7 8,7 C4,7 2,4 2,0 C2,-4 4,-7 8,-7 Z"/>
    </g>
    <!-- R -->
    <g transform="translate(24, 0)">
      <path d="M0,-10 L0,10 L4,10 L4,2 L8,2 L13,10 L18,10 L12,1 C15,0 17,-2 17,-6 C17,-9 14,-10 10,-10 L0,-10 Z M4,-7 L9,-7 C12,-7 13,-6 13,-5 C13,-3 12,-2 9,-2 L4,-2 L4,-7 Z"/>
    </g>
    <!-- D -->
    <g transform="translate(46, 0)">
      <path d="M0,-10 L0,10 L10,10 C16,10 20,6 20,0 C20,-6 16,-10 10,-10 L0,-10 Z M4,-7 L9,-7 C13,-7 16,-4 16,0 C16,4 13,7 9,7 L4,7 L4,-7 Z"/>
    </g>
  </g>
</svg>
