<?xml version="1.0" encoding="UTF-8"?>
<svg width="320" height="80" viewBox="0 0 320 80" xmlns="http://www.w3.org/2000/svg">
  <title>R.E.P.S. Wordmark (Outlined - Transparent Background)</title>

  <!-- R.E.P.S. letterforms - Crete Round style with slab serifs -->
  <g transform="translate(28, 50)">

    <!-- R letter - Crete Round style -->
    <g fill="#ffffff">
      <path d="M0,0 L0,-38 L22,-38 C32,-38 38,-32 38,-24 C38,-17 34,-12 27,-10 L40,0 L28,0 L17,-9 L10,-9 L10,0 Z M10,-16 L20,-16 C26,-16 29,-19 29,-24 C29,-29 26,-31 20,-31 L10,-31 Z"/>
    </g>

    <!-- Green dot after R -->
    <circle cx="50" cy="-4" r="5" fill="#39ff14"/>

    <!-- E letter - Crete Round style -->
    <g fill="#ffffff" transform="translate(62, 0)">
      <path d="M0,0 L0,-38 L32,-38 L32,-31 L10,-31 L10,-22 L28,-22 L28,-15 L10,-15 L10,-7 L32,-7 L32,0 Z"/>
    </g>

    <!-- Green dot after E -->
    <circle cx="104" cy="-4" r="5" fill="#39ff14"/>

    <!-- P letter - Crete Round style -->
    <g fill="#ffffff" transform="translate(116, 0)">
      <path d="M0,0 L0,-38 L22,-38 C32,-38 38,-32 38,-24 C38,-16 32,-10 22,-10 L10,-10 L10,0 Z M10,-17 L20,-17 C26,-17 29,-20 29,-24 C29,-29 26,-31 20,-31 L10,-31 Z"/>
    </g>

    <!-- Green dot after P -->
    <circle cx="164" cy="-4" r="5" fill="#39ff14"/>

    <!-- S letter - Crete Round style -->
    <g fill="#ffffff" transform="translate(176, 0)">
      <path d="M16,-38 C7,-38 0,-34 0,-26 C0,-18 6,-14 16,-11 C24,-9 28,-6 28,-1 C28,4 24,7 16,7 C8,7 2,5 2,5 L2,-2 C2,-2 8,0 16,0 C22,0 24,-2 24,-5 C24,-9 20,-11 12,-14 C4,-17 0,-22 0,-29 C0,-36 6,-38 16,-38 C24,-38 30,-36 30,-36 L30,-29 C30,-29 24,-31 16,-31 C10,-31 8,-29 8,-26 C8,-22 12,-20 20,-17 C28,-14 32,-9 32,-2 C32,6 26,14 16,14 C6,14 0,11 0,11 L0,4"/>
    </g>

    <!-- Green dot after S -->
    <circle cx="218" cy="-4" r="5" fill="#39ff14"/>
  </g>
</svg>
