<?xml version="1.0" encoding="UTF-8"?>
<svg width="320" height="80" viewBox="0 0 320 80" xmlns="http://www.w3.org/2000/svg">
  <title>R.E.P.S. Wordmark (Outlined - Transparent Background)</title>

  <!-- R.E.P.S. letterforms - tighter spacing to match website -->
  <g transform="translate(160, 42)">

    <!-- R letter -->
    <g fill="#ffffff" transform="translate(-138, 0)">
      <path d="M0,-26 L0,26 L10,26 L10,4 L22,4 L34,26 L46,26 L32,2 C40,-2 44,-9 44,-17 C44,-24 38,-26 26,-26 L0,-26 Z M10,-18 L24,-18 C32,-18 36,-15 36,-12 C36,-8 32,-4 24,-4 L10,-4 L10,-18 Z"/>
    </g>

    <!-- Green dot after R -->
    <circle cx="-88" cy="20" r="5" fill="#39ff14"/>

    <!-- E letter -->
    <g fill="#ffffff" transform="translate(-72, 0)">
      <path d="M0,-26 L0,26 L38,26 L38,18 L10,18 L10,4 L34,4 L34,-4 L10,-4 L10,-18 L37,-18 L37,-26 L0,-26 Z"/>
    </g>

    <!-- Green dot after E -->
    <circle cx="-26" cy="20" r="5" fill="#39ff14"/>

    <!-- P letter -->
    <g fill="#ffffff" transform="translate(-10, 0)">
      <path d="M0,-26 L0,26 L10,26 L10,2 L24,2 C38,2 44,-6 44,-16 C44,-24 38,-26 26,-26 L0,-26 Z M10,-18 L24,-18 C32,-18 36,-14 36,-12 C36,-8 32,-6 24,-6 L10,-6 L10,-18 Z"/>
    </g>

    <!-- Green dot after P -->
    <circle cx="42" cy="20" r="5" fill="#39ff14"/>

    <!-- S letter -->
    <g fill="#ffffff" transform="translate(58, 0)">
      <path d="M36,-20 C36,-24 30,-26 20,-26 C10,-26 4,-24 4,-24 L4,-16 C4,-16 10,-18 20,-18 C26,-18 28,-16 28,-13 C28,-10 26,-8 20,-6 L14,-4 C6,-2 0,2 0,12 C0,22 8,26 20,26 C32,26 38,24 38,24 L38,16 C38,16 32,18 20,18 C12,18 8,16 8,12 C8,8 12,6 18,4 L24,2 C34,0 36,-4 36,-12 L36,-20 Z"/>
    </g>

    <!-- Green dot after S -->
    <circle cx="114" cy="20" r="5" fill="#39ff14"/>
  </g>
</svg>
