<?xml version="1.0" encoding="UTF-8"?>
<svg width="320" height="80" viewBox="0 0 320 80" xmlns="http://www.w3.org/2000/svg">
  <title>R.E.P.S. Wordmark (Outlined - Marketing Ready)</title>

  <!-- Navy Background -->
  <rect width="320" height="80" fill="#1a2744"/>

  <!-- R.E.P.S. letterforms - Crete Round style with slab serifs -->
  <g transform="translate(28, 50)">

    <!-- R letter - Crete Round style -->
    <g fill="#ffffff">
      <path d="M0,0 L0,-38 L22,-38 C32,-38 38,-32 38,-24 C38,-17 34,-12 27,-10 L40,0 L28,0 L17,-9 L10,-9 L10,0 Z M10,-16 L20,-16 C26,-16 29,-19 29,-24 C29,-29 26,-31 20,-31 L10,-31 Z"/>
    </g>

    <!-- Green dot after R -->
    <circle cx="50" cy="-4" r="5" fill="#39ff14"/>

    <!-- E letter - Crete Round style -->
    <g fill="#ffffff" transform="translate(62, 0)">
      <path d="M0,0 L0,-38 L32,-38 L32,-31 L10,-31 L10,-22 L28,-22 L28,-15 L10,-15 L10,-7 L32,-7 L32,0 Z"/>
    </g>

    <!-- Green dot after E -->
    <circle cx="104" cy="-4" r="5" fill="#39ff14"/>

    <!-- P letter - Crete Round style -->
    <g fill="#ffffff" transform="translate(116, 0)">
      <path d="M0,0 L0,-38 L22,-38 C32,-38 38,-32 38,-24 C38,-16 32,-10 22,-10 L10,-10 L10,0 Z M10,-17 L20,-17 C26,-17 29,-20 29,-24 C29,-29 26,-31 20,-31 L10,-31 Z"/>
    </g>

    <!-- Green dot after P -->
    <circle cx="164" cy="-4" r="5" fill="#39ff14"/>

    <!-- S letter - Crete Round style -->
    <g fill="#ffffff" transform="translate(176, 0)">
      <path d="M28,-38 C28,-38 22,-38 16,-38 C6,-38 0,-33 0,-26 C0,-20 5,-16 14,-13 C22,-10 26,-8 26,-4 C26,1 22,3 15,3 C8,3 2,1 2,1 L2,-6 C2,-6 8,-3 16,-3 C22,-3 26,-5 26,-10 C26,-14 22,-16 14,-19 C5,-22 0,-26 0,-33 C0,-39 6,-45 17,-45 C26,-45 32,-43 32,-43 L32,-36 C32,-36 26,-38 17,-38 C10,-38 6,-36 6,-32 C6,-28 10,-26 18,-23 C28,-20 34,-16 34,-9 C34,-1 28,6 16,6 C6,6 0,3 0,3 L0,-4 C0,-4 6,-1 16,-1 C24,-1 28,-4 28,-9 C28,-13 24,-15 16,-18 C6,-21 0,-26 0,-33 C0,-40 7,-45 17,-45 C28,-45 34,-42 34,-42 L34,-35 C34,-35 28,-38 17,-38 Z"/>
    </g>

    <!-- Green dot after S -->
    <circle cx="220" cy="-4" r="5" fill="#39ff14"/>
  </g>
</svg>
