<?xml version="1.0" encoding="UTF-8"?>
<svg width="320" height="80" viewBox="0 0 320 80" xmlns="http://www.w3.org/2000/svg">
  <title>R.E.P.S. Wordmark (Outlined - Transparent Background)</title>

  <!-- R.E.P.S. letterforms - tighter spacing to match website -->
  <g transform="translate(160, 42)">

    <!-- R letter -->
    <g fill="#ffffff" transform="translate(-138, 0)">
      <path d="M0,-26 L0,26 L10,26 L10,4 L22,4 L34,26 L46,26 L32,2 C40,-2 44,-9 44,-17 C44,-24 38,-26 26,-26 L0,-26 Z M10,-18 L24,-18 C32,-18 36,-15 36,-12 C36,-8 32,-4 24,-4 L10,-4 L10,-18 Z"/>
    </g>

    <!-- Green dot after R -->
    <circle cx="-88" cy="20" r="5" fill="#39ff14"/>

    <!-- E letter -->
    <g fill="#ffffff" transform="translate(-72, 0)">
      <path d="M0,-26 L0,26 L38,26 L38,18 L10,18 L10,4 L34,4 L34,-4 L10,-4 L10,-18 L37,-18 L37,-26 L0,-26 Z"/>
    </g>

    <!-- Green dot after E -->
    <circle cx="-26" cy="20" r="5" fill="#39ff14"/>

    <!-- P letter -->
    <g fill="#ffffff" transform="translate(-10, 0)">
      <path d="M0,-26 L0,26 L10,26 L10,2 L24,2 C38,2 44,-6 44,-16 C44,-24 38,-26 26,-26 L0,-26 Z M10,-18 L24,-18 C32,-18 36,-14 36,-12 C36,-8 32,-6 24,-6 L10,-6 L10,-18 Z"/>
    </g>

    <!-- Green dot after P -->
    <circle cx="42" cy="20" r="5" fill="#39ff14"/>

    <!-- S letter -->
    <g fill="#ffffff" transform="translate(58, 0)">
      <path d="M38,-26 L38,-18 C34,-21 28,-23 22,-23 C14,-23 10,-20 10,-15 C10,-10 14,-8 24,-5 C36,-2 44,3 44,13 C44,22 36,26 22,26 C12,26 4,23 0,19 L0,10 C6,15 14,18 22,18 C30,18 34,15 34,10 C34,5 30,3 20,0 C8,-3 0,-8 0,-17 C0,-24 8,-26 20,-26 C28,-26 34,-25 38,-26 Z"/>
    </g>

    <!-- Green dot after S -->
    <circle cx="114" cy="20" r="5" fill="#39ff14"/>
  </g>
</svg>
