<?xml version="1.0" encoding="UTF-8"?>
<svg width="320" height="80" viewBox="0 0 320 80" xmlns="http://www.w3.org/2000/svg">
  <title>R.E.P.S. Wordmark (Outlined - Transparent Background)</title>

  <!-- R.E.P.S. letterforms - Crete Round style with slab serifs -->
  <g transform="translate(28, 50)">

    <!-- R letter - Crete Round style -->
    <g fill="#ffffff">
      <path d="M0,0 L0,-38 L22,-38 C32,-38 38,-32 38,-24 C38,-17 34,-12 27,-10 L40,0 L28,0 L17,-9 L10,-9 L10,0 Z M10,-16 L20,-16 C26,-16 29,-19 29,-24 C29,-29 26,-31 20,-31 L10,-31 Z"/>
    </g>

    <!-- Green dot after R -->
    <circle cx="50" cy="-4" r="5" fill="#39ff14"/>

    <!-- E letter - Crete Round style -->
    <g fill="#ffffff" transform="translate(62, 0)">
      <path d="M0,0 L0,-38 L32,-38 L32,-31 L10,-31 L10,-22 L28,-22 L28,-15 L10,-15 L10,-7 L32,-7 L32,0 Z"/>
    </g>

    <!-- Green dot after E -->
    <circle cx="104" cy="-4" r="5" fill="#39ff14"/>

    <!-- P letter - Crete Round style -->
    <g fill="#ffffff" transform="translate(116, 0)">
      <path d="M0,0 L0,-38 L22,-38 C32,-38 38,-32 38,-24 C38,-16 32,-10 22,-10 L10,-10 L10,0 Z M10,-17 L20,-17 C26,-17 29,-20 29,-24 C29,-29 26,-31 20,-31 L10,-31 Z"/>
    </g>

    <!-- Green dot after P -->
    <circle cx="164" cy="-4" r="5" fill="#39ff14"/>

    <!-- S letter - Crete Round style -->
    <g fill="#ffffff" transform="translate(176, 0)">
      <path d="M16,-38 C8,-38 2,-36 2,-36 L2,-29 C2,-29 8,-31 16,-31 C22,-31 26,-29 26,-25 C26,-21 22,-19 14,-16 C5,-13 0,-9 0,-2 C0,4 6,7 16,7 C24,7 30,5 30,5 L30,-2 C30,-2 24,0 16,0 C10,0 6,-2 6,-6 C6,-10 10,-12 18,-15 C27,-18 32,-22 32,-29 C32,-36 26,-38 16,-38 Z"/>
    </g>

    <!-- Green dot after S -->
    <circle cx="218" cy="-4" r="5" fill="#39ff14"/>
  </g>
</svg>
