<?xml version="1.0" encoding="UTF-8"?>
<svg width="320" height="120" viewBox="0 0 320 120" xmlns="http://www.w3.org/2000/svg">
  <title>R.E.P.S. Built Different (Outlined - Transparent)</title>

  <!-- R.E.P.S. letterforms - Crete Round style -->
  <g transform="translate(28, 50)">

    <!-- R letter -->
    <g fill="#ffffff">
      <path d="M0,0 L0,-38 L22,-38 C32,-38 38,-32 38,-24 C38,-17 34,-12 27,-10 L40,0 L28,0 L17,-9 L10,-9 L10,0 Z M10,-16 L20,-16 C26,-16 29,-19 29,-24 C29,-29 26,-31 20,-31 L10,-31 Z"/>
    </g>

    <!-- Green dot after R -->
    <circle cx="50" cy="-4" r="5" fill="#39ff14"/>

    <!-- E letter -->
    <g fill="#ffffff" transform="translate(62, 0)">
      <path d="M0,0 L0,-38 L32,-38 L32,-31 L10,-31 L10,-22 L28,-22 L28,-15 L10,-15 L10,-7 L32,-7 L32,0 Z"/>
    </g>

    <!-- Green dot after E -->
    <circle cx="104" cy="-4" r="5" fill="#39ff14"/>

    <!-- P letter -->
    <g fill="#ffffff" transform="translate(116, 0)">
      <path d="M0,0 L0,-38 L22,-38 C32,-38 38,-32 38,-24 C38,-16 32,-10 22,-10 L10,-10 L10,0 Z M10,-17 L20,-17 C26,-17 29,-20 29,-24 C29,-29 26,-31 20,-31 L10,-31 Z"/>
    </g>

    <!-- Green dot after P -->
    <circle cx="164" cy="-4" r="5" fill="#39ff14"/>

    <!-- S letter -->
    <g fill="#ffffff" transform="translate(176, 0)">
      <path d="M16,-38 C7,-38 0,-34 0,-26 C0,-18 6,-14 16,-11 C24,-9 28,-6 28,-1 C28,4 24,7 16,7 C8,7 2,5 2,5 L2,-2 C2,-2 8,0 16,0 C22,0 24,-2 24,-5 C24,-9 20,-11 12,-14 C4,-17 0,-22 0,-29 C0,-36 6,-38 16,-38 C24,-38 30,-36 30,-36 L30,-29 C30,-29 24,-31 16,-31 C10,-31 8,-29 8,-26 C8,-22 12,-20 20,-17 C28,-14 32,-9 32,-2 C32,6 26,14 16,14 C6,14 0,11 0,11 L0,4"/>
    </g>

    <!-- Green dot after S -->
    <circle cx="218" cy="-4" r="5" fill="#39ff14"/>
  </g>

  <!-- "Built different." text -->
  <g fill="#ffffff" transform="translate(28, 95)">
    <!-- B -->
    <g transform="translate(0, 0)">
      <path d="M0,-15 L0,8 L10,8 C15,8 18,6 18,2 C18,-1 16,-3 13,-4 C16,-5 17,-7 17,-10 C17,-14 14,-15 9,-15 Z M5,-11 L8,-11 C11,-11 12,-10 12,-8 C12,-6 11,-5 8,-5 L5,-5 Z M5,-1 L9,-1 C12,-1 13,0 13,3 C13,5 12,5 9,5 L5,5 Z"/>
    </g>
    <!-- u -->
    <g transform="translate(22, 0)">
      <path d="M0,-9 L0,3 C0,6 3,9 8,9 C13,9 16,6 16,3 L16,-9 L12,-9 L12,2 C12,4 11,5 8,5 C5,5 4,4 4,2 L4,-9 Z"/>
    </g>
    <!-- i -->
    <g transform="translate(42, 0)">
      <path d="M0,-9 L0,8 L4,8 L4,-9 Z M0,-15 L4,-15 L4,-11 L0,-11 Z"/>
    </g>
    <!-- l -->
    <g transform="translate(50, 0)">
      <path d="M0,-15 L0,8 L4,8 L4,-15 Z"/>
    </g>
    <!-- t -->
    <g transform="translate(58, 0)">
      <path d="M2,-15 L2,-9 L0,-9 L0,-6 L2,-6 L2,5 C2,7 4,9 7,9 L10,9 L10,5 L8,5 C7,5 6,5 6,4 L6,-6 L10,-6 L10,-9 L6,-9 L6,-15 Z"/>
    </g>
    <!-- space + d -->
    <g transform="translate(80, 0)">
      <path d="M12,-15 L12,8 L8,8 L8,6 C7,8 5,9 2,9 C-2,9 -4,5 -4,0 C-4,-5 -2,-9 2,-9 C5,-9 7,-8 8,-6 L8,-15 Z M8,0 C8,-3 6,-5 3,-5 C0,-5 0,-2 0,0 C0,3 0,5 3,5 C6,5 8,3 8,0 Z"/>
    </g>
    <!-- i -->
    <g transform="translate(98, 0)">
      <path d="M0,-9 L0,8 L4,8 L4,-9 Z M0,-15 L4,-15 L4,-11 L0,-11 Z"/>
    </g>
    <!-- f -->
    <g transform="translate(106, 0)">
      <path d="M6,-15 C4,-15 2,-14 2,-11 L2,-9 L0,-9 L0,-6 L2,-6 L2,8 L6,8 L6,-6 L9,-6 L9,-9 L6,-9 L6,-11 C6,-12 6,-12 7,-12 L9,-12 L9,-15 Z"/>
    </g>
    <!-- f -->
    <g transform="translate(116, 0)">
      <path d="M6,-15 C4,-15 2,-14 2,-11 L2,-9 L0,-9 L0,-6 L2,-6 L2,8 L6,8 L6,-6 L9,-6 L9,-9 L6,-9 L6,-11 C6,-12 6,-12 7,-12 L9,-12 L9,-15 Z"/>
    </g>
    <!-- e -->
    <g transform="translate(128, 0)">
      <path d="M8,-9 C3,-9 0,-5 0,0 C0,5 3,9 8,9 C12,9 14,7 14,7 L14,3 C14,3 12,5 9,5 C6,5 4,3 4,1 L14,1 L14,-1 C14,-6 11,-9 8,-9 Z M8,-5 C10,-5 10,-3 10,-2 L4,-2 C4,-4 6,-5 8,-5 Z"/>
    </g>
    <!-- r -->
    <g transform="translate(144, 0)">
      <path d="M0,-9 L0,8 L4,8 L4,-3 C4,-4 5,-5 7,-5 L9,-5 L9,-9 C9,-9 8,-9 6,-9 C4,-9 4,-8 4,-7 L4,-9 Z"/>
    </g>
    <!-- e -->
    <g transform="translate(156, 0)">
      <path d="M8,-9 C3,-9 0,-5 0,0 C0,5 3,9 8,9 C12,9 14,7 14,7 L14,3 C14,3 12,5 9,5 C6,5 4,3 4,1 L14,1 L14,-1 C14,-6 11,-9 8,-9 Z M8,-5 C10,-5 10,-3 10,-2 L4,-2 C4,-4 6,-5 8,-5 Z"/>
    </g>
    <!-- n -->
    <g transform="translate(172, 0)">
      <path d="M0,-9 L0,8 L4,8 L4,-2 C4,-4 5,-5 8,-5 C10,-5 11,-4 11,-2 L11,8 L15,8 L15,-3 C15,-7 12,-9 8,-9 C5,-9 4,-8 4,-7 L4,-9 Z"/>
    </g>
    <!-- t -->
    <g transform="translate(190, 0)">
      <path d="M2,-15 L2,-9 L0,-9 L0,-6 L2,-6 L2,5 C2,7 4,9 7,9 L10,9 L10,5 L8,5 C7,5 6,5 6,4 L6,-6 L10,-6 L10,-9 L6,-9 L6,-15 Z"/>
    </g>
    <!-- green period -->
    <circle cx="208" cy="4" r="4" fill="#39ff14"/>
  </g>
</svg>
