<?xml version="1.0" encoding="UTF-8"?>
<svg width="320" height="120" viewBox="0 0 320 120" xmlns="http://www.w3.org/2000/svg">
  <title>R.E.P.S. Softball Logo (Outlined - Transparent Background)</title>

  <!-- R.E.P.S. letterforms -->
  <g transform="translate(160, 38)">

    <!-- R letter -->
    <g fill="#ffffff" transform="translate(-138, 0)">
      <path d="M0,-26 L0,26 L10,26 L10,4 L22,4 L34,26 L46,26 L32,2 C40,-2 44,-9 44,-17 C44,-24 38,-26 26,-26 L0,-26 Z M10,-18 L24,-18 C32,-18 36,-15 36,-12 C36,-8 32,-4 24,-4 L10,-4 L10,-18 Z"/>
    </g>

    <!-- Green dot after R -->
    <circle cx="-88" cy="20" r="5" fill="#39ff14"/>

    <!-- E letter -->
    <g fill="#ffffff" transform="translate(-72, 0)">
      <path d="M0,-26 L0,26 L38,26 L38,18 L10,18 L10,4 L34,4 L34,-4 L10,-4 L10,-18 L37,-18 L37,-26 L0,-26 Z"/>
    </g>

    <!-- Green dot after E -->
    <circle cx="-26" cy="20" r="5" fill="#39ff14"/>

    <!-- P letter -->
    <g fill="#ffffff" transform="translate(-10, 0)">
      <path d="M0,-26 L0,26 L10,26 L10,2 L24,2 C38,2 44,-6 44,-16 C44,-24 38,-26 26,-26 L0,-26 Z M10,-18 L24,-18 C32,-18 36,-14 36,-12 C36,-8 32,-6 24,-6 L10,-6 L10,-18 Z"/>
    </g>

    <!-- Green dot after P -->
    <circle cx="42" cy="20" r="5" fill="#39ff14"/>

    <!-- S letter -->
    <g fill="#ffffff" transform="translate(58, 0)">
      <path d="M38,-26 L38,-18 C34,-21 28,-23 22,-23 C14,-23 10,-20 10,-15 C10,-10 14,-8 24,-5 C36,-2 44,3 44,13 C44,22 36,26 22,26 C12,26 4,23 0,19 L0,10 C6,15 14,18 22,18 C30,18 34,15 34,10 C34,5 30,3 20,0 C8,-3 0,-8 0,-17 C0,-24 8,-26 20,-26 C28,-26 34,-25 38,-26 Z"/>
    </g>

    <!-- Green dot after S -->
    <circle cx="114" cy="20" r="5" fill="#39ff14"/>
  </g>

  <!-- SOFTBALL text -->
  <g fill="#39ff14" transform="translate(160, 95)">
    <!-- S -->
    <g transform="translate(-72, 0)">
      <path d="M8,-10 C4,-10 0,-9 -2,-7 L0,-4 C2,-6 5,-7 8,-7 C11,-7 13,-6 13,-4 C13,-2 11,-1 7,0 C2,2 0,4 0,7 C0,9 3,10 7,10 C11,10 14,9 16,7 L14,4 C12,6 10,7 7,7 C5,7 4,6 4,5 C4,3 6,2 10,1 C14,0 17,-2 17,-5 C17,-9 14,-10 8,-10 Z"/>
    </g>
    <!-- O -->
    <g transform="translate(-52, 0)">
      <path d="M8,-10 C2,-10 -2,-6 -2,0 C-2,6 2,10 8,10 C14,10 18,6 18,0 C18,-6 14,-10 8,-10 Z M8,-7 C12,-7 14,-4 14,0 C14,4 12,7 8,7 C4,7 2,4 2,0 C2,-4 4,-7 8,-7 Z"/>
    </g>
    <!-- F -->
    <g transform="translate(-32, 0)">
      <path d="M0,-10 L0,10 L4,10 L4,1 L12,1 L12,-2 L4,-2 L4,-7 L13,-7 L13,-10 L0,-10 Z"/>
    </g>
    <!-- T -->
    <g transform="translate(-16, 0)">
      <path d="M0,-10 L0,-7 L5,-7 L5,10 L9,10 L9,-7 L14,-7 L14,-10 L0,-10 Z"/>
    </g>
    <!-- B -->
    <g transform="translate(2, 0)">
      <path d="M0,-10 L0,10 L10,10 C14,10 16,8 16,5 C16,3 15,1 12,0 C14,-1 15,-3 15,-5 C15,-8 13,-10 9,-10 L0,-10 Z M4,-7 L8,-7 C10,-7 11,-6 11,-4 C11,-3 10,-1 8,-1 L4,-1 L4,-7 Z M4,2 L9,2 C11,2 12,3 12,5 C12,7 11,7 9,7 L4,7 L4,2 Z"/>
    </g>
    <!-- A -->
    <g transform="translate(22, 0)">
      <path d="M8,-10 L0,10 L4,10 L6,5 L14,5 L16,10 L20,10 L12,-10 L8,-10 Z M10,-5 L7,3 L13,3 L10,-5 Z"/>
    </g>
    <!-- L -->
    <g transform="translate(44, 0)">
      <path d="M0,-10 L0,10 L14,10 L14,7 L4,7 L4,-10 L0,-10 Z"/>
    </g>
    <!-- L -->
    <g transform="translate(60, 0)">
      <path d="M0,-10 L0,10 L14,10 L14,7 L4,7 L4,-10 L0,-10 Z"/>
    </g>
  </g>
</svg>
