<?xml version="1.0" encoding="UTF-8"?>
<svg width="320" height="80" viewBox="0 0 320 80" xmlns="http://www.w3.org/2000/svg">
  <title>R.E.P.S. Wordmark (Outlined - Transparent Background)</title>

  <!-- R.E.P.S. letterforms - tighter spacing to match website -->
  <g transform="translate(160, 42)">

    <!-- R letter -->
    <g fill="#ffffff" transform="translate(-138, 0)">
      <path d="M0,-26 L0,26 L10,26 L10,4 L22,4 L34,26 L46,26 L32,2 C40,-2 44,-9 44,-17 C44,-24 38,-26 26,-26 L0,-26 Z M10,-18 L24,-18 C32,-18 36,-15 36,-12 C36,-8 32,-4 24,-4 L10,-4 L10,-18 Z"/>
    </g>

    <!-- Green dot after R -->
    <circle cx="-88" cy="20" r="5" fill="#39ff14"/>

    <!-- E letter -->
    <g fill="#ffffff" transform="translate(-72, 0)">
      <path d="M0,-26 L0,26 L38,26 L38,18 L10,18 L10,4 L34,4 L34,-4 L10,-4 L10,-18 L37,-18 L37,-26 L0,-26 Z"/>
    </g>

    <!-- Green dot after E -->
    <circle cx="-26" cy="20" r="5" fill="#39ff14"/>

    <!-- P letter -->
    <g fill="#ffffff" transform="translate(-10, 0)">
      <path d="M0,-26 L0,26 L10,26 L10,2 L24,2 C38,2 44,-6 44,-16 C44,-24 38,-26 26,-26 L0,-26 Z M10,-18 L24,-18 C32,-18 36,-14 36,-12 C36,-8 32,-6 24,-6 L10,-6 L10,-18 Z"/>
    </g>

    <!-- Green dot after P -->
    <circle cx="42" cy="20" r="5" fill="#39ff14"/>

    <!-- S letter -->
    <g fill="#ffffff" transform="translate(58, 0)">
      <path d="M24,-27 C12,-27 2,-22 -2,-17 L4,-9 C10,-14 18,-19 26,-19 C34,-19 40,-16 40,-10 C40,-4 34,-2 22,2 C8,6 0,12 0,21 C0,27 8,28 20,28 C32,28 44,23 50,17 L44,9 C38,14 30,19 22,19 C14,19 10,16 10,12 C10,6 16,4 28,0 C42,-4 50,-10 50,-18 C50,-25 42,-27 24,-27 Z"/>
    </g>

    <!-- Green dot after S -->
    <circle cx="114" cy="20" r="5" fill="#39ff14"/>
  </g>
</svg>
